#!OML:ASF H:\MichaelJackson\Top Level 1\Subject 1\Session 1\male.ASF
:FULLY-SPECIFIED
:DEGREES
149
root 3.89154 16.6892 -18.0438 9.09556 -0.401668 -4.61571
lowerback -3.19984 1.25865 -1.00752
upperback -1.50383 1.69257 3.81416
thorax 0.103184 0.86867 4.55034
lowerneck -7.57204 -1.83627 -5.4279
upperneck -5.69024 -1.97838 3.06958
head -0.413034 -0.884729 1.84353
rclavicle 2.00773e-014 3.26007e-014
rhumerus -38.8479 13.6143 -89.9163
rradius 38.1123
rwrist 13.0484
rhand -31.0849 -24.0311
rfingers 7.12502
rthumb -4.36508 -53.9661
lclavicle 2.00773e-014 3.26007e-014
lhumerus -40.8206 7.10824 91.3462
lradius 42.359
lwrist 8.11015
lhand -13.3154 2.79188
lfingers 7.12502
lthumb 12.7892 32.3801
rfemur -17.4417 -3.96656 23.7934
rtibia 34.5657
rfoot -26.7093 -5.07167
rtoes 17.6989
lfemur -38.5571 15.6193 -15.4894
ltibia 52.2633
lfoot -17.314 0.929152
ltoes 11.2766
150
root 3.91928 16.6851 -17.9983 9.09066 -0.352008 -4.75732
lowerback -3.25213 1.39573 -0.97711
upperback -1.51964 1.87497 3.84077
thorax 0.100411 0.960582 4.56728
lowerneck -7.58722 -1.94513 -5.4412
upperneck -5.81864 -2.11977 3.06241
head -0.444784 -0.953555 1.84091
rclavicle 1.18774e-014 2.50469e-014
rhumerus -38.7995 13.702 -89.862
rradius 38.1751
rwrist 13.2646
rhand -30.9729 -24.0577
rfingers 7.12502
rthumb -4.25698 -53.9949
lclavicle 1.18774e-014 2.50469e-014
lhumerus -41.0643 7.35211 91.1946
lradius 42.612
lwrist 8.16691
lhand -12.7833 3.02511
lfingers 7.12502
lthumb 13.3021 32.5806
rfemur -17.1899 -4.15868 23.8365
rtibia 34.409
rfoot -26.6348 -5.00033
rtoes 17.3954
lfemur -38.5294 14.8213 -14.9946
ltibia 51.558
lfoot -17.2295 1.52775
ltoes 11.5379
151
root 3.94848 16.6809 -17.9501 9.06755 -0.280523 -4.91031
lowerback -3.29952 1.52853 -0.930912
upperback -1.54565 2.05149 3.86769
thorax 0.0854635 1.04977 4.5752
lowerneck -7.60278 -2.0546 -5.44574
upperneck -5.90736 -2.263 3.05249
head -0.46402 -1.0238 1.83557
rclavicle 4.67144e-015 3.29983e-014
rhumerus -38.7858 13.8378 -89.8332
rradius 38.2494
rwrist 13.4446
rhand -30.7953 -24.0223
rfingers 7.12502
rthumb -4.08543 -53.9628
lclavicle 4.67144e-015 3.29983e-014
lhumerus -41.3524 7.57827 91.0305
lradius 42.8719
lwrist 8.19601
lhand -12.2263 3.23813
lfingers 7.12502
lthumb 13.8389 32.7578
rfemur -16.8901 -4.35847 23.8855
rtibia 34.2277
rfoot -26.5768 -4.95304
rtoes 17.0127
lfemur -38.4667 13.9446 -14.4485
ltibia 50.8695
lfoot -17.123 2.04818
ltoes 11.8251
152
root 3.97927 16.6768 -17.8988 9.02405 -0.198364 -5.068
lowerback -3.34357 1.6591 -0.873833
upperback -1.5811 2.22501 3.89092
thorax 0.0598606 1.13764 4.57279
lowerneck -7.62522 -2.16392 -5.43944
upperneck -5.94755 -2.40685 3.04151
head -0.466946 -1.09494 1.82754
rclavicle 1.76421e-014 -4.77083e-015
rhumerus -38.813 14.0226 -89.8301
rradius 38.342
rwrist 13.5665
rhand -30.5636 -23.8802
rfingers 7.12502
rthumb -3.86168 -53.8249
lclavicle 1.76421e-014 -4.77083e-015
lhumerus -41.6871 7.79259 90.8478
lradius 43.145
lwrist 8.21108
lhand -11.6388 3.44465
lfingers 7.12502
lthumb 14.405 32.9248
rfemur -16.5421 -4.58391 23.9295
rtibia 34.0261
rfoot -26.5391 -4.90512
rtoes 16.5293
lfemur -38.368 13 -13.8625
ltibia 50.2043
lfoot -16.9651 2.50219
ltoes 12.1305
153
root 4.0112 16.6723 -17.8454 8.97477 -0.0761049 -5.22448
lowerback -3.40164 1.78116 -0.831351
upperback -1.62527 2.38767 3.91951
thorax 0.0333732 1.22031 4.58433
lowerneck -7.65013 -2.27691 -5.42309
upperneck -5.95161 -2.55669 3.02174
head -0.458108 -1.16959 1.81439
rclavicle -4.52235e-015 -2.90226e-014
rhumerus -38.8667 14.241 -89.8254
rradius 38.46
rwrist 13.6516
rhand -30.2921 -23.6691
rfingers 7.12502
rthumb -3.5995 -53.6184
lclavicle -4.52235e-015 -2.90226e-014
lhumerus -42.0502 8.00115 90.6604
lradius 43.4254
lwrist 8.22144
lhand -11.0327 3.69554
lfingers 7.12502
lthumb 14.989 33.1331
rfemur -16.1681 -4.84806 23.9691
rtibia 33.8118
rfoot -26.5262 -4.86709
rtoes 15.9547
lfemur -38.2646 11.9528 -13.2445
ltibia 49.5685
lfoot -16.7247 2.90556
ltoes 12.3998
154
root 4.04423 16.6672 -17.7901 8.91881 0.087856 -5.38091
lowerback -3.46327 1.89175 -0.800218
upperback -1.68201 2.53569 3.95258
thorax -0.00349877 1.29606 4.60652
lowerneck -7.68062 -2.39163 -5.39621
upperneck -5.91626 -2.70976 2.99501
head -0.43612 -1.2464 1.7966
rclavicle 1.16289e-014 -4.37326e-015
rhumerus -38.9502 14.4887 -89.8173
rradius 38.6083
rwrist 13.7143
rhand -29.9769 -23.3646
rfingers 7.12502
rthumb -3.29519 -53.3188
lclavicle 1.16289e-014 -4.37326e-015
lhumerus -42.4511 8.21709 90.4572
lradius 43.7229
lwrist 8.2373
lhand -10.3817 3.93217
lfingers 7.12502
lthumb 15.616 33.3218
rfemur -15.7737 -5.17079 24.0059
rtibia 33.5945
rfoot -26.5319 -4.8309
rtoes 15.2628
lfemur -38.1634 10.8146 -12.5973
ltibia 48.9672
lfoot -16.3893 3.26285
ltoes 12.4568
155
root 4.07855 16.6613 -17.7329 8.84772 0.284519 -5.54235
lowerback -3.51797 1.9924 -0.775575
upperback -1.75047 2.67111 3.99185
thorax -0.0558936 1.36597 4.63797
lowerneck -7.70722 -2.50678 -5.36156
upperneck -5.85126 -2.86453 2.96466
head -0.40565 -1.32451 1.77595
rclavicle 4.65156e-014 7.55382e-015
rhumerus -39.0676 14.747 -89.7959
rradius 38.7977
rwrist 13.7618
rhand -29.6417 -22.9866
rfingers 7.12502
rthumb -2.97141 -52.9457
lclavicle 4.65156e-014 7.55382e-015
lhumerus -42.8891 8.45727 90.2287
lradius 44.0357
lwrist 8.26526
lhand -9.66026 4.21936
lfingers 7.12502
lthumb 16.3108 33.5534
rfemur -15.3579 -5.57284 24.0408
rtibia 33.3878
rfoot -26.5491 -4.75715
rtoes 14.4964
lfemur -38.0571 9.58576 -11.9126
ltibia 48.4066
lfoot -15.9401 3.57404
ltoes 12.1684
156
root 4.11435 16.654 -17.6739 8.76249 0.503598 -5.71552
lowerback -3.5759 2.09027 -0.756727
upperback -1.82395 2.80318 4.04158
thorax -0.112331 1.43449 4.68357
lowerneck -7.72904 -2.62619 -5.32037
upperneck -5.76546 -3.02595 2.93013
head -0.369476 -1.40629 1.75242
rclavicle -1.49089e-016 8.74653e-015
rhumerus -39.2092 14.9859 -89.7339
rradius 39.0388
rwrist 13.8043
rhand -29.2676 -22.5361
rfingers 7.12502
rthumb -2.61019 -52.4998
lclavicle -1.49089e-016 8.74653e-015
lhumerus -43.3521 8.7194 89.9816
lradius 44.364
lwrist 8.29594
lhand -8.87445 4.55747
lfingers 7.12502
lthumb 17.0673 33.8278
rfemur -14.9332 -6.06587 24.077
rtibia 33.2058
rfoot -26.5595 -4.61977
rtoes 13.6903
lfemur -37.9445 8.28805 -11.1889
ltibia 47.8965
lfoot -15.4305 3.81284
ltoes 11.5246
157
root 4.15184 16.6451 -17.6136 8.66032 0.736377 -5.9047
lowerback -3.63039 2.1867 -0.734555
upperback -1.9023 2.93351 4.1006
thorax -0.176091 1.50239 4.73668
lowerneck -7.73846 -2.74824 -5.27341
upperneck -5.66923 -3.19204 2.89601
head -0.332139 -1.4907 1.72788
rclavicle 1.10574e-014 -2.38542e-014
rhumerus -39.3776 15.1766 -89.6198
rradius 39.342
rwrist 13.8514
rhand -28.842 -22.0134
rfingers 7.12502
rthumb -2.19908 -51.9819
lclavicle 1.10574e-014 -2.38542e-014
lhumerus -43.8408 9.01219 89.7072
lradius 44.7098
lwrist 8.33919
lhand -8.01783 5.02506
lfingers 7.12502
lthumb 17.8917 34.2221
rfemur -14.5134 -6.6651 24.1132
rtibia 33.0692
rfoot -26.5393 -4.39163
rtoes 12.8759
lfemur -37.821 6.93196 -10.4232
ltibia 47.4479
lfoot -14.9219 3.94628
ltoes 10.6536
158
root 4.19124 16.6343 -17.5522 8.53018 0.968597 -6.11274
lowerback -3.67148 2.28614 -0.706402
upperback -1.98137 3.06803 4.1697
thorax -0.248946 1.57262 4.79638
lowerneck -7.73128 -2.87253 -5.22293
upperneck -5.56652 -3.36219 2.8681
head -0.295466 -1.57735 1.70472
rclavicle 2.05245e-014 8.34896e-015
rhumerus -39.5814 15.2942 -89.4369
rradius 39.7261
rwrist 13.9004
rhand -28.3806 -21.4176
rfingers 7.12502
rthumb -1.75352 -51.3902
lclavicle 2.05245e-014 8.34896e-015
lhumerus -44.3511 9.33485 89.4057
lradius 45.069
lwrist 8.39967
lhand -7.07519 5.59293
lfingers 7.12502
lthumb 18.7985 34.7046
rfemur -14.1052 -7.3698 24.1434
rtibia 33.0078
rfoot -26.4891 -4.04053
rtoes 12.1315
lfemur -37.6606 5.52882 -9.61266
ltibia 47.0728
lfoot -14.4954 3.96751
ltoes 9.6393
159
root 4.23259 16.6212 -17.4902 8.368 1.19622 -6.33774
lowerback -3.69956 2.39014 -0.674664
upperback -2.05619 3.20876 4.24793
thorax -0.32588 1.64607 4.86318
lowerneck -7.70173 -3.00069 -5.16592
upperneck -5.46911 -3.53896 2.84751
head -0.26404 -1.6675 1.6829
rclavicle 1.99282e-014 -8.34896e-015
rhumerus -39.8161 15.3107 -89.1686
rradius 40.1969
rwrist 13.9455
rhand -27.7972 -20.7402
rfingers 7.12502
rthumb -1.19009 -50.7166
lclavicle 1.99282e-014 -8.34896e-015
lhumerus -44.8738 9.68066 89.0787
lradius 45.4332
lwrist 8.49053
lhand -6.04357 6.23862
lfingers 7.12502
lthumb 19.7905 35.2511
rfemur -13.7267 -8.18941 24.1589
rtibia 33.0615
rfoot -26.4196 -3.54052
rtoes 11.4777
lfemur -37.4465 4.08455 -8.76183
ltibia 46.7776
lfoot -14.2286 3.87331
ltoes 8.56984
